<svg xmlns="http://www.w3.org/2000/svg" viewBox="-12 -12 264 264" width="264" height="264">
  <!-- Outer extension rectangle -->
  <rect x="-10" y="-10" width="260" height="260" rx="8" ry="8" fill="#000"/>
  <!-- Inner bordered rectangle -->
  <rect x="1" y="1" width="238" height="238" rx="6" ry="6" fill="#000" stroke="#fff" stroke-width="2"/>
  <!-- Circle -->
  <circle cx="120" cy="120" r="114" fill="#000" stroke="#fff" stroke-width="2"/>

  <!-- Ghost triangle pointing right (the other time direction) -->
  <g opacity="0.03">
    <polygon points="230,120 65,24.74 65,215.26" fill="#fff"/>
    <polygon points="147.5,72.37 147.5,167.63 65,120" fill="#000"/>
    <polygon points="188.75,96.185 188.75,143.815 147.5,120" fill="#000"/>
    <polygon points="106.25,48.555 65,72.37 106.25,96.185" fill="#000"/>
    <polygon points="106.25,191.445 65,167.63 106.25,143.815" fill="#000"/>
    <polygon points="209.375,108.0925 209.375,131.9075 188.75,120" fill="#000"/>
    <polygon points="168.125,84.2775 147.5,96.185 168.125,108.0925" fill="#000"/>
    <polygon points="168.125,155.7225 147.5,143.815 168.125,131.9075" fill="#000"/>
    <polygon points="85.625,36.6475 65,48.555 85.625,60.4625" fill="#000"/>
    <polygon points="126.875,60.4625 126.875,84.2775 106.25,72.37" fill="#000"/>
    <polygon points="65,96.185 85.625,108.0925 85.625,84.2775" fill="#000"/>
    <polygon points="85.625,203.3525 65,191.445 85.625,179.5375" fill="#000"/>
    <polygon points="126.875,179.5375 126.875,155.7225 106.25,167.63" fill="#000"/>
    <polygon points="65,143.815 85.625,131.9075 85.625,155.7225" fill="#000"/>
  </g>

  <!-- Solid triangle pointing left (origin — present direction) -->
  <polygon points="10,120 175,24.74 175,215.26" fill="#fff"/>
  <polygon points="92.5,72.37 92.5,167.63 175,120" fill="#000"/>
  <polygon points="51.25,96.185 51.25,143.815 92.5,120" fill="#000"/>
  <polygon points="133.75,48.555 175,72.37 133.75,96.185" fill="#000"/>
  <polygon points="133.75,191.445 175,167.63 133.75,143.815" fill="#000"/>
  <polygon points="30.625,108.0925 30.625,131.9075 51.25,120" fill="#000"/>
  <polygon points="71.875,84.2775 92.5,96.185 71.875,108.0925" fill="#000"/>
  <polygon points="71.875,155.7225 92.5,143.815 71.875,131.9075" fill="#000"/>
  <polygon points="154.375,36.6475 175,48.555 154.375,60.4625" fill="#000"/>
  <polygon points="113.125,60.4625 113.125,84.2775 133.75,72.37" fill="#000"/>
  <polygon points="175,96.185 154.375,108.0925 154.375,84.2775" fill="#000"/>
  <polygon points="154.375,203.3525 175,191.445 154.375,179.5375" fill="#000"/>
  <polygon points="113.125,179.5375 113.125,155.7225 133.75,167.63" fill="#000"/>
  <polygon points="175,143.815 154.375,131.9075 154.375,155.7225" fill="#000"/>
</svg>
