<svg xmlns="http://www.w3.org/2000/svg" viewBox="-12 -12 264 264" width="264" height="264" style="background:#ccc">
  <rect x="-10" y="-10" width="260" height="260" rx="8" ry="8" fill="#fff"/>
  <rect x="1" y="1" width="238" height="238" rx="6" ry="6" fill="#fff" stroke="#000" stroke-width="2"/>
  <circle cx="120" cy="120" r="114" fill="#fff" stroke="#000" stroke-width="2"/>
  <path d="M10.0000,120.0000 L175.0000,24.7400 L175.0000,215.2600 Z M92.5000,72.3700 L92.5000,167.6300 L175.0000,120.0000 Z M51.2500,96.1850 L51.2500,143.8150 L92.5000,120.0000 Z M30.6250,108.0925 L30.6250,131.9075 L51.2500,120.0000 Z M20.3125,114.0463 L20.3125,125.9537 L30.6250,120.0000 Z M15.1562,117.0231 L15.1562,122.9769 L20.3125,120.0000 Z M25.4688,111.0694 L30.6250,114.0463 L25.4688,117.0231 Z M25.4688,128.9306 L30.6250,125.9537 L25.4688,122.9769 Z M40.9375,102.1388 L51.2500,108.0925 L40.9375,114.0463 Z M46.0938,99.1619 L51.2500,102.1388 L46.0938,105.1156 Z M35.7812,105.1156 L35.7812,111.0694 L40.9375,108.0925 Z M51.2500,114.0463 L46.0938,117.0231 L46.0938,111.0694 Z M40.9375,137.8612 L51.2500,131.9075 L40.9375,125.9537 Z M46.0938,140.8381 L51.2500,137.8612 L46.0938,134.8844 Z M35.7812,134.8844 L35.7812,128.9306 L40.9375,131.9075 Z M51.2500,125.9537 L46.0938,122.9769 L46.0938,128.9306 Z M71.8750,84.2775 L92.5000,96.1850 L71.8750,108.0925 Z M82.1875,78.3238 L92.5000,84.2775 L82.1875,90.2313 Z M87.3438,75.3469 L92.5000,78.3238 L87.3438,81.3006 Z M77.0312,81.3006 L77.0312,87.2544 L82.1875,84.2775 Z M92.5000,90.2313 L87.3438,93.2081 L87.3438,87.2544 Z M61.5625,90.2313 L61.5625,102.1388 L71.8750,96.1850 Z M56.4062,93.2081 L56.4062,99.1619 L61.5625,96.1850 Z M66.7188,87.2544 L71.8750,90.2313 L66.7188,93.2081 Z M66.7188,105.1156 L71.8750,102.1388 L66.7188,99.1619 Z M92.5000,108.0925 L82.1875,114.0463 L82.1875,102.1388 Z M92.5000,114.0463 L87.3438,117.0231 L87.3438,111.0694 Z M92.5000,102.1388 L87.3438,99.1619 L87.3438,105.1156 Z M77.0312,111.0694 L77.0312,105.1156 L82.1875,108.0925 Z M71.8750,155.7225 L92.5000,143.8150 L71.8750,131.9075 Z M82.1875,161.6762 L92.5000,155.7225 L82.1875,149.7688 Z M87.3438,164.6531 L92.5000,161.6762 L87.3438,158.6994 Z M77.0312,158.6994 L77.0312,152.7456 L82.1875,155.7225 Z M92.5000,149.7688 L87.3438,146.7919 L87.3438,152.7456 Z M61.5625,149.7688 L61.5625,137.8612 L71.8750,143.8150 Z M56.4062,146.7919 L56.4062,140.8381 L61.5625,143.8150 Z M66.7188,152.7456 L71.8750,149.7688 L66.7188,146.7919 Z M66.7188,134.8844 L71.8750,137.8612 L66.7188,140.8381 Z M92.5000,131.9075 L82.1875,125.9537 L82.1875,137.8612 Z M92.5000,125.9537 L87.3438,122.9769 L87.3438,128.9306 Z M92.5000,137.8612 L87.3438,140.8381 L87.3438,134.8844 Z M77.0312,128.9306 L77.0312,134.8844 L82.1875,131.9075 Z M133.7500,48.5550 L175.0000,72.3700 L133.7500,96.1850 Z M154.3750,36.6475 L175.0000,48.5550 L154.3750,60.4625 Z M164.6875,30.6938 L175.0000,36.6475 L164.6875,42.6013 Z M169.8438,27.7169 L175.0000,30.6938 L169.8438,33.6706 Z M159.5312,33.6706 L159.5312,39.6244 L164.6875,36.6475 Z M175.0000,42.6013 L169.8438,45.5781 L169.8438,39.6244 Z M144.0625,42.6013 L144.0625,54.5088 L154.3750,48.5550 Z M138.9062,45.5781 L138.9062,51.5319 L144.0625,48.5550 Z M149.2188,39.6244 L154.3750,42.6013 L149.2188,45.5781 Z M149.2188,57.4856 L154.3750,54.5088 L149.2188,51.5319 Z M175.0000,60.4625 L164.6875,66.4163 L164.6875,54.5088 Z M175.0000,66.4163 L169.8438,69.3931 L169.8438,63.4394 Z M175.0000,54.5088 L169.8438,51.5319 L169.8438,57.4856 Z M159.5312,63.4394 L159.5312,57.4856 L164.6875,60.4625 Z M113.1250,60.4625 L113.1250,84.2775 L133.7500,72.3700 Z M102.8125,66.4163 L102.8125,78.3238 L113.1250,72.3700 Z M97.6562,69.3931 L97.6562,75.3469 L102.8125,72.3700 Z M107.9688,63.4394 L113.1250,66.4163 L107.9688,69.3931 Z M107.9688,81.3006 L113.1250,78.3238 L107.9688,75.3469 Z M123.4375,54.5088 L133.7500,60.4625 L123.4375,66.4163 Z M128.5938,51.5319 L133.7500,54.5088 L128.5938,57.4856 Z M118.2812,57.4856 L118.2812,63.4394 L123.4375,60.4625 Z M133.7500,66.4163 L128.5938,69.3931 L128.5938,63.4394 Z M123.4375,90.2313 L133.7500,84.2775 L123.4375,78.3238 Z M128.5938,93.2081 L133.7500,90.2313 L128.5938,87.2544 Z M118.2812,87.2544 L118.2812,81.3006 L123.4375,84.2775 Z M133.7500,78.3238 L128.5938,75.3469 L128.5938,81.3006 Z M175.0000,96.1850 L154.3750,108.0925 L154.3750,84.2775 Z M175.0000,108.0925 L164.6875,114.0463 L164.6875,102.1388 Z M175.0000,114.0463 L169.8438,117.0231 L169.8438,111.0694 Z M175.0000,102.1388 L169.8438,99.1619 L169.8438,105.1156 Z M159.5312,111.0694 L159.5312,105.1156 L164.6875,108.0925 Z M175.0000,84.2775 L164.6875,78.3238 L164.6875,90.2313 Z M175.0000,78.3238 L169.8438,75.3469 L169.8438,81.3006 Z M175.0000,90.2313 L169.8438,93.2081 L169.8438,87.2544 Z M159.5312,81.3006 L159.5312,87.2544 L164.6875,84.2775 Z M144.0625,102.1388 L144.0625,90.2313 L154.3750,96.1850 Z M138.9062,99.1619 L138.9062,93.2081 L144.0625,96.1850 Z M149.2188,105.1156 L154.3750,102.1388 L149.2188,99.1619 Z M149.2188,87.2544 L154.3750,90.2313 L149.2188,93.2081 Z M133.7500,191.4450 L175.0000,167.6300 L133.7500,143.8150 Z M154.3750,203.3525 L175.0000,191.4450 L154.3750,179.5375 Z M164.6875,209.3062 L175.0000,203.3525 L164.6875,197.3988 Z M169.8438,212.2831 L175.0000,209.3062 L169.8438,206.3294 Z M159.5312,206.3294 L159.5312,200.3756 L164.6875,203.3525 Z M175.0000,197.3988 L169.8438,194.4219 L169.8438,200.3756 Z M144.0625,197.3988 L144.0625,185.4912 L154.3750,191.4450 Z M138.9062,194.4219 L138.9062,188.4681 L144.0625,191.4450 Z M149.2188,200.3756 L154.3750,197.3988 L149.2188,194.4219 Z M149.2188,182.5144 L154.3750,185.4912 L149.2188,188.4681 Z M175.0000,179.5375 L164.6875,173.5838 L164.6875,185.4912 Z M175.0000,173.5838 L169.8438,170.6069 L169.8438,176.5606 Z M175.0000,185.4912 L169.8438,188.4681 L169.8438,182.5144 Z M159.5312,176.5606 L159.5312,182.5144 L164.6875,179.5375 Z M113.1250,179.5375 L113.1250,155.7225 L133.7500,167.6300 Z M102.8125,173.5838 L102.8125,161.6762 L113.1250,167.6300 Z M97.6562,170.6069 L97.6562,164.6531 L102.8125,167.6300 Z M107.9688,176.5606 L113.1250,173.5838 L107.9688,170.6069 Z M107.9688,158.6994 L113.1250,161.6762 L107.9688,164.6531 Z M123.4375,185.4912 L133.7500,179.5375 L123.4375,173.5838 Z M128.5938,188.4681 L133.7500,185.4912 L128.5938,182.5144 Z M118.2812,182.5144 L118.2812,176.5606 L123.4375,179.5375 Z M133.7500,173.5838 L128.5938,170.6069 L128.5938,176.5606 Z M123.4375,149.7688 L133.7500,155.7225 L123.4375,161.6762 Z M128.5938,146.7919 L133.7500,149.7688 L128.5938,152.7456 Z M118.2812,152.7456 L118.2812,158.6994 L123.4375,155.7225 Z M133.7500,161.6762 L128.5938,164.6531 L128.5938,158.6994 Z M175.0000,143.8150 L154.3750,131.9075 L154.3750,155.7225 Z M175.0000,131.9075 L164.6875,125.9537 L164.6875,137.8612 Z M175.0000,125.9537 L169.8438,122.9769 L169.8438,128.9306 Z M175.0000,137.8612 L169.8438,140.8381 L169.8438,134.8844 Z M159.5312,128.9306 L159.5312,134.8844 L164.6875,131.9075 Z M175.0000,155.7225 L164.6875,161.6762 L164.6875,149.7688 Z M175.0000,161.6762 L169.8438,164.6531 L169.8438,158.6994 Z M175.0000,149.7688 L169.8438,146.7919 L169.8438,152.7456 Z M159.5312,158.6994 L159.5312,152.7456 L164.6875,155.7225 Z M144.0625,137.8612 L144.0625,149.7688 L154.3750,143.8150 Z M138.9062,140.8381 L138.9062,146.7919 L144.0625,143.8150 Z M149.2188,134.8844 L154.3750,137.8612 L149.2188,140.8381 Z M149.2188,152.7456 L154.3750,149.7688 L149.2188,146.7919 Z" fill="#000" fill-rule="evenodd"/>
</svg>
