<svg xmlns="http://www.w3.org/2000/svg" viewBox="-12 -12 264 264" width="264" height="264">
  <rect x="-10" y="-10" width="260" height="260" rx="8" ry="8" fill="#000"/>
  <rect x="1" y="1" width="238" height="238" rx="6" ry="6" fill="#000" stroke="#fff" stroke-width="2"/>
  <circle cx="120" cy="120" r="114" fill="#000" stroke="#fff" stroke-width="2"/>
  <g opacity="0.08">
  <path d="M230.0000,120.0000 L65.0000,24.7400 L65.0000,215.2600 Z M147.5000,72.3700 L147.5000,167.6300 L65.0000,120.0000 Z M188.7500,96.1850 L188.7500,143.8150 L147.5000,120.0000 Z M209.3750,108.0925 L209.3750,131.9075 L188.7500,120.0000 Z M219.6875,114.0463 L219.6875,125.9537 L209.3750,120.0000 Z M224.8438,117.0231 L224.8438,122.9769 L219.6875,120.0000 Z M214.5312,111.0694 L209.3750,114.0463 L214.5312,117.0231 Z M214.5312,128.9306 L209.3750,125.9537 L214.5312,122.9769 Z M199.0625,102.1388 L188.7500,108.0925 L199.0625,114.0463 Z M193.9062,99.1619 L188.7500,102.1388 L193.9062,105.1156 Z M204.2188,105.1156 L204.2188,111.0694 L199.0625,108.0925 Z M188.7500,114.0463 L193.9062,117.0231 L193.9062,111.0694 Z M199.0625,137.8612 L188.7500,131.9075 L199.0625,125.9537 Z M193.9062,140.8381 L188.7500,137.8612 L193.9062,134.8844 Z M204.2188,134.8844 L204.2188,128.9306 L199.0625,131.9075 Z M188.7500,125.9537 L193.9062,122.9769 L193.9062,128.9306 Z M168.1250,84.2775 L147.5000,96.1850 L168.1250,108.0925 Z M157.8125,78.3238 L147.5000,84.2775 L157.8125,90.2313 Z M152.6562,75.3469 L147.5000,78.3238 L152.6562,81.3006 Z M162.9688,81.3006 L162.9688,87.2544 L157.8125,84.2775 Z M147.5000,90.2313 L152.6562,93.2081 L152.6562,87.2544 Z M178.4375,90.2313 L178.4375,102.1388 L168.1250,96.1850 Z M183.5938,93.2081 L183.5938,99.1619 L178.4375,96.1850 Z M173.2812,87.2544 L168.1250,90.2313 L173.2812,93.2081 Z M173.2812,105.1156 L168.1250,102.1388 L173.2812,99.1619 Z M147.5000,108.0925 L157.8125,114.0463 L157.8125,102.1388 Z M147.5000,114.0463 L152.6562,117.0231 L152.6562,111.0694 Z M147.5000,102.1388 L152.6562,99.1619 L152.6562,105.1156 Z M162.9688,111.0694 L162.9688,105.1156 L157.8125,108.0925 Z M168.1250,155.7225 L147.5000,143.8150 L168.1250,131.9075 Z M157.8125,161.6762 L147.5000,155.7225 L157.8125,149.7688 Z M152.6562,164.6531 L147.5000,161.6762 L152.6562,158.6994 Z M162.9688,158.6994 L162.9688,152.7456 L157.8125,155.7225 Z M147.5000,149.7688 L152.6562,146.7919 L152.6562,152.7456 Z M178.4375,149.7688 L178.4375,137.8612 L168.1250,143.8150 Z M183.5938,146.7919 L183.5938,140.8381 L178.4375,143.8150 Z M173.2812,152.7456 L168.1250,149.7688 L173.2812,146.7919 Z M173.2812,134.8844 L168.1250,137.8612 L173.2812,140.8381 Z M147.5000,131.9075 L157.8125,125.9537 L157.8125,137.8612 Z M147.5000,125.9537 L152.6562,122.9769 L152.6562,128.9306 Z M147.5000,137.8612 L152.6562,140.8381 L152.6562,134.8844 Z M162.9688,128.9306 L162.9688,134.8844 L157.8125,131.9075 Z M106.2500,48.5550 L65.0000,72.3700 L106.2500,96.1850 Z M85.6250,36.6475 L65.0000,48.5550 L85.6250,60.4625 Z M75.3125,30.6938 L65.0000,36.6475 L75.3125,42.6013 Z M70.1562,27.7169 L65.0000,30.6938 L70.1562,33.6706 Z M80.4688,33.6706 L80.4688,39.6244 L75.3125,36.6475 Z M65.0000,42.6013 L70.1562,45.5781 L70.1562,39.6244 Z M95.9375,42.6013 L95.9375,54.5088 L85.6250,48.5550 Z M101.0938,45.5781 L101.0938,51.5319 L95.9375,48.5550 Z M90.7812,39.6244 L85.6250,42.6013 L90.7812,45.5781 Z M90.7812,57.4856 L85.6250,54.5088 L90.7812,51.5319 Z M65.0000,60.4625 L75.3125,66.4163 L75.3125,54.5088 Z M65.0000,66.4163 L70.1562,69.3931 L70.1562,63.4394 Z M65.0000,54.5088 L70.1562,51.5319 L70.1562,57.4856 Z M80.4688,63.4394 L80.4688,57.4856 L75.3125,60.4625 Z M126.8750,60.4625 L126.8750,84.2775 L106.2500,72.3700 Z M137.1875,66.4163 L137.1875,78.3238 L126.8750,72.3700 Z M142.3438,69.3931 L142.3438,75.3469 L137.1875,72.3700 Z M132.0312,63.4394 L126.8750,66.4163 L132.0312,69.3931 Z M132.0312,81.3006 L126.8750,78.3238 L132.0312,75.3469 Z M116.5625,54.5088 L106.2500,60.4625 L116.5625,66.4163 Z M111.4062,51.5319 L106.2500,54.5088 L111.4062,57.4856 Z M121.7188,57.4856 L121.7188,63.4394 L116.5625,60.4625 Z M106.2500,66.4163 L111.4062,69.3931 L111.4062,63.4394 Z M116.5625,90.2313 L106.2500,84.2775 L116.5625,78.3238 Z M111.4062,93.2081 L106.2500,90.2313 L111.4062,87.2544 Z M121.7188,87.2544 L121.7188,81.3006 L116.5625,84.2775 Z M106.2500,78.3238 L111.4062,75.3469 L111.4062,81.3006 Z M65.0000,96.1850 L85.6250,108.0925 L85.6250,84.2775 Z M65.0000,108.0925 L75.3125,114.0463 L75.3125,102.1388 Z M65.0000,114.0463 L70.1562,117.0231 L70.1562,111.0694 Z M65.0000,102.1388 L70.1562,99.1619 L70.1562,105.1156 Z M80.4688,111.0694 L80.4688,105.1156 L75.3125,108.0925 Z M65.0000,84.2775 L75.3125,78.3238 L75.3125,90.2313 Z M65.0000,78.3238 L70.1562,75.3469 L70.1562,81.3006 Z M65.0000,90.2313 L70.1562,93.2081 L70.1562,87.2544 Z M80.4688,81.3006 L80.4688,87.2544 L75.3125,84.2775 Z M95.9375,102.1388 L95.9375,90.2313 L85.6250,96.1850 Z M101.0938,99.1619 L101.0938,93.2081 L95.9375,96.1850 Z M90.7812,105.1156 L85.6250,102.1388 L90.7812,99.1619 Z M90.7812,87.2544 L85.6250,90.2313 L90.7812,93.2081 Z M106.2500,191.4450 L65.0000,167.6300 L106.2500,143.8150 Z M85.6250,203.3525 L65.0000,191.4450 L85.6250,179.5375 Z M75.3125,209.3062 L65.0000,203.3525 L75.3125,197.3988 Z M70.1562,212.2831 L65.0000,209.3062 L70.1562,206.3294 Z M80.4688,206.3294 L80.4688,200.3756 L75.3125,203.3525 Z M65.0000,197.3988 L70.1562,194.4219 L70.1562,200.3756 Z M95.9375,197.3988 L95.9375,185.4912 L85.6250,191.4450 Z M101.0938,194.4219 L101.0938,188.4681 L95.9375,191.4450 Z M90.7812,200.3756 L85.6250,197.3988 L90.7812,194.4219 Z M90.7812,182.5144 L85.6250,185.4912 L90.7812,188.4681 Z M65.0000,179.5375 L75.3125,173.5838 L75.3125,185.4912 Z M65.0000,173.5838 L70.1562,170.6069 L70.1562,176.5606 Z M65.0000,185.4912 L70.1562,188.4681 L70.1562,182.5144 Z M80.4688,176.5606 L80.4688,182.5144 L75.3125,179.5375 Z M126.8750,179.5375 L126.8750,155.7225 L106.2500,167.6300 Z M137.1875,173.5838 L137.1875,161.6762 L126.8750,167.6300 Z M142.3438,170.6069 L142.3438,164.6531 L137.1875,167.6300 Z M132.0312,176.5606 L126.8750,173.5838 L132.0312,170.6069 Z M132.0312,158.6994 L126.8750,161.6762 L132.0312,164.6531 Z M116.5625,185.4912 L106.2500,179.5375 L116.5625,173.5838 Z M111.4062,188.4681 L106.2500,185.4912 L111.4062,182.5144 Z M121.7188,182.5144 L121.7188,176.5606 L116.5625,179.5375 Z M106.2500,173.5838 L111.4062,170.6069 L111.4062,176.5606 Z M116.5625,149.7688 L106.2500,155.7225 L116.5625,161.6762 Z M111.4062,146.7919 L106.2500,149.7688 L111.4062,152.7456 Z M121.7188,152.7456 L121.7188,158.6994 L116.5625,155.7225 Z M106.2500,161.6762 L111.4062,164.6531 L111.4062,158.6994 Z M65.0000,143.8150 L85.6250,131.9075 L85.6250,155.7225 Z M65.0000,131.9075 L75.3125,125.9537 L75.3125,137.8612 Z M65.0000,125.9537 L70.1562,122.9769 L70.1562,128.9306 Z M65.0000,137.8612 L70.1562,140.8381 L70.1562,134.8844 Z M80.4688,128.9306 L80.4688,134.8844 L75.3125,131.9075 Z M65.0000,155.7225 L75.3125,161.6762 L75.3125,149.7688 Z M65.0000,161.6762 L70.1562,164.6531 L70.1562,158.6994 Z M65.0000,149.7688 L70.1562,146.7919 L70.1562,152.7456 Z M80.4688,158.6994 L80.4688,152.7456 L75.3125,155.7225 Z M95.9375,137.8612 L95.9375,149.7688 L85.6250,143.8150 Z M101.0938,140.8381 L101.0938,146.7919 L95.9375,143.8150 Z M90.7812,134.8844 L85.6250,137.8612 L90.7812,140.8381 Z M90.7812,152.7456 L85.6250,149.7688 L90.7812,146.7919 Z" fill="#fff" fill-rule="evenodd"/>
  </g>
  <path d="M10.0000,120.0000 L175.0000,24.7400 L175.0000,215.2600 Z M92.5000,72.3700 L92.5000,167.6300 L175.0000,120.0000 Z M51.2500,96.1850 L51.2500,143.8150 L92.5000,120.0000 Z M30.6250,108.0925 L30.6250,131.9075 L51.2500,120.0000 Z M20.3125,114.0463 L20.3125,125.9537 L30.6250,120.0000 Z M15.1562,117.0231 L15.1562,122.9769 L20.3125,120.0000 Z M25.4688,111.0694 L30.6250,114.0463 L25.4688,117.0231 Z M25.4688,128.9306 L30.6250,125.9537 L25.4688,122.9769 Z M40.9375,102.1388 L51.2500,108.0925 L40.9375,114.0463 Z M46.0938,99.1619 L51.2500,102.1388 L46.0938,105.1156 Z M35.7812,105.1156 L35.7812,111.0694 L40.9375,108.0925 Z M51.2500,114.0463 L46.0938,117.0231 L46.0938,111.0694 Z M40.9375,137.8612 L51.2500,131.9075 L40.9375,125.9537 Z M46.0938,140.8381 L51.2500,137.8612 L46.0938,134.8844 Z M35.7812,134.8844 L35.7812,128.9306 L40.9375,131.9075 Z M51.2500,125.9537 L46.0938,122.9769 L46.0938,128.9306 Z M71.8750,84.2775 L92.5000,96.1850 L71.8750,108.0925 Z M82.1875,78.3238 L92.5000,84.2775 L82.1875,90.2313 Z M87.3438,75.3469 L92.5000,78.3238 L87.3438,81.3006 Z M77.0312,81.3006 L77.0312,87.2544 L82.1875,84.2775 Z M92.5000,90.2313 L87.3438,93.2081 L87.3438,87.2544 Z M61.5625,90.2313 L61.5625,102.1388 L71.8750,96.1850 Z M56.4062,93.2081 L56.4062,99.1619 L61.5625,96.1850 Z M66.7188,87.2544 L71.8750,90.2313 L66.7188,93.2081 Z M66.7188,105.1156 L71.8750,102.1388 L66.7188,99.1619 Z M92.5000,108.0925 L82.1875,114.0463 L82.1875,102.1388 Z M92.5000,114.0463 L87.3438,117.0231 L87.3438,111.0694 Z M92.5000,102.1388 L87.3438,99.1619 L87.3438,105.1156 Z M77.0312,111.0694 L77.0312,105.1156 L82.1875,108.0925 Z M71.8750,155.7225 L92.5000,143.8150 L71.8750,131.9075 Z M82.1875,161.6762 L92.5000,155.7225 L82.1875,149.7688 Z M87.3438,164.6531 L92.5000,161.6762 L87.3438,158.6994 Z M77.0312,158.6994 L77.0312,152.7456 L82.1875,155.7225 Z M92.5000,149.7688 L87.3438,146.7919 L87.3438,152.7456 Z M61.5625,149.7688 L61.5625,137.8612 L71.8750,143.8150 Z M56.4062,146.7919 L56.4062,140.8381 L61.5625,143.8150 Z M66.7188,152.7456 L71.8750,149.7688 L66.7188,146.7919 Z M66.7188,134.8844 L71.8750,137.8612 L66.7188,140.8381 Z M92.5000,131.9075 L82.1875,125.9537 L82.1875,137.8612 Z M92.5000,125.9537 L87.3438,122.9769 L87.3438,128.9306 Z M92.5000,137.8612 L87.3438,140.8381 L87.3438,134.8844 Z M77.0312,128.9306 L77.0312,134.8844 L82.1875,131.9075 Z M133.7500,48.5550 L175.0000,72.3700 L133.7500,96.1850 Z M154.3750,36.6475 L175.0000,48.5550 L154.3750,60.4625 Z M164.6875,30.6938 L175.0000,36.6475 L164.6875,42.6013 Z M169.8438,27.7169 L175.0000,30.6938 L169.8438,33.6706 Z M159.5312,33.6706 L159.5312,39.6244 L164.6875,36.6475 Z M175.0000,42.6013 L169.8438,45.5781 L169.8438,39.6244 Z M144.0625,42.6013 L144.0625,54.5088 L154.3750,48.5550 Z M138.9062,45.5781 L138.9062,51.5319 L144.0625,48.5550 Z M149.2188,39.6244 L154.3750,42.6013 L149.2188,45.5781 Z M149.2188,57.4856 L154.3750,54.5088 L149.2188,51.5319 Z M175.0000,60.4625 L164.6875,66.4163 L164.6875,54.5088 Z M175.0000,66.4163 L169.8438,69.3931 L169.8438,63.4394 Z M175.0000,54.5088 L169.8438,51.5319 L169.8438,57.4856 Z M159.5312,63.4394 L159.5312,57.4856 L164.6875,60.4625 Z M113.1250,60.4625 L113.1250,84.2775 L133.7500,72.3700 Z M102.8125,66.4163 L102.8125,78.3238 L113.1250,72.3700 Z M97.6562,69.3931 L97.6562,75.3469 L102.8125,72.3700 Z M107.9688,63.4394 L113.1250,66.4163 L107.9688,69.3931 Z M107.9688,81.3006 L113.1250,78.3238 L107.9688,75.3469 Z M123.4375,54.5088 L133.7500,60.4625 L123.4375,66.4163 Z M128.5938,51.5319 L133.7500,54.5088 L128.5938,57.4856 Z M118.2812,57.4856 L118.2812,63.4394 L123.4375,60.4625 Z M133.7500,66.4163 L128.5938,69.3931 L128.5938,63.4394 Z M123.4375,90.2313 L133.7500,84.2775 L123.4375,78.3238 Z M128.5938,93.2081 L133.7500,90.2313 L128.5938,87.2544 Z M118.2812,87.2544 L118.2812,81.3006 L123.4375,84.2775 Z M133.7500,78.3238 L128.5938,75.3469 L128.5938,81.3006 Z M175.0000,96.1850 L154.3750,108.0925 L154.3750,84.2775 Z M175.0000,108.0925 L164.6875,114.0463 L164.6875,102.1388 Z M175.0000,114.0463 L169.8438,117.0231 L169.8438,111.0694 Z M175.0000,102.1388 L169.8438,99.1619 L169.8438,105.1156 Z M159.5312,111.0694 L159.5312,105.1156 L164.6875,108.0925 Z M175.0000,84.2775 L164.6875,78.3238 L164.6875,90.2313 Z M175.0000,78.3238 L169.8438,75.3469 L169.8438,81.3006 Z M175.0000,90.2313 L169.8438,93.2081 L169.8438,87.2544 Z M159.5312,81.3006 L159.5312,87.2544 L164.6875,84.2775 Z M144.0625,102.1388 L144.0625,90.2313 L154.3750,96.1850 Z M138.9062,99.1619 L138.9062,93.2081 L144.0625,96.1850 Z M149.2188,105.1156 L154.3750,102.1388 L149.2188,99.1619 Z M149.2188,87.2544 L154.3750,90.2313 L149.2188,93.2081 Z M133.7500,191.4450 L175.0000,167.6300 L133.7500,143.8150 Z M154.3750,203.3525 L175.0000,191.4450 L154.3750,179.5375 Z M164.6875,209.3062 L175.0000,203.3525 L164.6875,197.3988 Z M169.8438,212.2831 L175.0000,209.3062 L169.8438,206.3294 Z M159.5312,206.3294 L159.5312,200.3756 L164.6875,203.3525 Z M175.0000,197.3988 L169.8438,194.4219 L169.8438,200.3756 Z M144.0625,197.3988 L144.0625,185.4912 L154.3750,191.4450 Z M138.9062,194.4219 L138.9062,188.4681 L144.0625,191.4450 Z M149.2188,200.3756 L154.3750,197.3988 L149.2188,194.4219 Z M149.2188,182.5144 L154.3750,185.4912 L149.2188,188.4681 Z M175.0000,179.5375 L164.6875,173.5838 L164.6875,185.4912 Z M175.0000,173.5838 L169.8438,170.6069 L169.8438,176.5606 Z M175.0000,185.4912 L169.8438,188.4681 L169.8438,182.5144 Z M159.5312,176.5606 L159.5312,182.5144 L164.6875,179.5375 Z M113.1250,179.5375 L113.1250,155.7225 L133.7500,167.6300 Z M102.8125,173.5838 L102.8125,161.6762 L113.1250,167.6300 Z M97.6562,170.6069 L97.6562,164.6531 L102.8125,167.6300 Z M107.9688,176.5606 L113.1250,173.5838 L107.9688,170.6069 Z M107.9688,158.6994 L113.1250,161.6762 L107.9688,164.6531 Z M123.4375,185.4912 L133.7500,179.5375 L123.4375,173.5838 Z M128.5938,188.4681 L133.7500,185.4912 L128.5938,182.5144 Z M118.2812,182.5144 L118.2812,176.5606 L123.4375,179.5375 Z M133.7500,173.5838 L128.5938,170.6069 L128.5938,176.5606 Z M123.4375,149.7688 L133.7500,155.7225 L123.4375,161.6762 Z M128.5938,146.7919 L133.7500,149.7688 L128.5938,152.7456 Z M118.2812,152.7456 L118.2812,158.6994 L123.4375,155.7225 Z M133.7500,161.6762 L128.5938,164.6531 L128.5938,158.6994 Z M175.0000,143.8150 L154.3750,131.9075 L154.3750,155.7225 Z M175.0000,131.9075 L164.6875,125.9537 L164.6875,137.8612 Z M175.0000,125.9537 L169.8438,122.9769 L169.8438,128.9306 Z M175.0000,137.8612 L169.8438,140.8381 L169.8438,134.8844 Z M159.5312,128.9306 L159.5312,134.8844 L164.6875,131.9075 Z M175.0000,155.7225 L164.6875,161.6762 L164.6875,149.7688 Z M175.0000,161.6762 L169.8438,164.6531 L169.8438,158.6994 Z M175.0000,149.7688 L169.8438,146.7919 L169.8438,152.7456 Z M159.5312,158.6994 L159.5312,152.7456 L164.6875,155.7225 Z M144.0625,137.8612 L144.0625,149.7688 L154.3750,143.8150 Z M138.9062,140.8381 L138.9062,146.7919 L144.0625,143.8150 Z M149.2188,134.8844 L154.3750,137.8612 L149.2188,140.8381 Z M149.2188,152.7456 L154.3750,149.7688 L149.2188,146.7919 Z" fill="#fff" fill-rule="evenodd"/>
</svg>
