<svg xmlns="http://www.w3.org/2000/svg" viewBox="-12 -12 264 264" width="264" height="264">
  <rect x="-10" y="-10" width="260" height="260" rx="8" ry="8" fill="#000"/>
  <rect x="1" y="1" width="238" height="238" rx="6" ry="6" fill="#000" stroke="#fff" stroke-width="2"/>
  <circle cx="120" cy="120" r="114" fill="#000" stroke="#fff" stroke-width="2"/>
  <g opacity="0.08">
  <polygon points="230.0000,120.0000 65.0000,24.7400 65.0000,215.2600" fill="#fff"/>
  <polygon points="147.5000,72.3700 147.5000,167.6300 65.0000,120.0000" fill="#000"/>
  <polygon points="188.7500,96.1850 188.7500,143.8150 147.5000,120.0000" fill="#000"/>
  <polygon points="209.3750,108.0925 209.3750,131.9075 188.7500,120.0000" fill="#000"/>
  <polygon points="219.6875,114.0463 219.6875,125.9537 209.3750,120.0000" fill="#000"/>
  <polygon points="224.8438,117.0231 224.8438,122.9769 219.6875,120.0000" fill="#000"/>
  <polygon points="214.5312,111.0694 209.3750,114.0463 214.5312,117.0231" fill="#000"/>
  <polygon points="214.5312,128.9306 209.3750,125.9537 214.5312,122.9769" fill="#000"/>
  <polygon points="199.0625,102.1388 188.7500,108.0925 199.0625,114.0463" fill="#000"/>
  <polygon points="193.9062,99.1619 188.7500,102.1388 193.9062,105.1156" fill="#000"/>
  <polygon points="204.2188,105.1156 204.2188,111.0694 199.0625,108.0925" fill="#000"/>
  <polygon points="188.7500,114.0463 193.9062,117.0231 193.9062,111.0694" fill="#000"/>
  <polygon points="199.0625,137.8612 188.7500,131.9075 199.0625,125.9537" fill="#000"/>
  <polygon points="193.9062,140.8381 188.7500,137.8612 193.9062,134.8844" fill="#000"/>
  <polygon points="204.2188,134.8844 204.2188,128.9306 199.0625,131.9075" fill="#000"/>
  <polygon points="188.7500,125.9537 193.9062,122.9769 193.9062,128.9306" fill="#000"/>
  <polygon points="168.1250,84.2775 147.5000,96.1850 168.1250,108.0925" fill="#000"/>
  <polygon points="157.8125,78.3238 147.5000,84.2775 157.8125,90.2313" fill="#000"/>
  <polygon points="152.6562,75.3469 147.5000,78.3238 152.6562,81.3006" fill="#000"/>
  <polygon points="162.9688,81.3006 162.9688,87.2544 157.8125,84.2775" fill="#000"/>
  <polygon points="147.5000,90.2313 152.6562,93.2081 152.6562,87.2544" fill="#000"/>
  <polygon points="178.4375,90.2313 178.4375,102.1388 168.1250,96.1850" fill="#000"/>
  <polygon points="183.5938,93.2081 183.5938,99.1619 178.4375,96.1850" fill="#000"/>
  <polygon points="173.2812,87.2544 168.1250,90.2313 173.2812,93.2081" fill="#000"/>
  <polygon points="173.2812,105.1156 168.1250,102.1388 173.2812,99.1619" fill="#000"/>
  <polygon points="147.5000,108.0925 157.8125,114.0463 157.8125,102.1388" fill="#000"/>
  <polygon points="147.5000,114.0463 152.6562,117.0231 152.6562,111.0694" fill="#000"/>
  <polygon points="147.5000,102.1388 152.6562,99.1619 152.6562,105.1156" fill="#000"/>
  <polygon points="162.9688,111.0694 162.9688,105.1156 157.8125,108.0925" fill="#000"/>
  <polygon points="168.1250,155.7225 147.5000,143.8150 168.1250,131.9075" fill="#000"/>
  <polygon points="157.8125,161.6762 147.5000,155.7225 157.8125,149.7688" fill="#000"/>
  <polygon points="152.6562,164.6531 147.5000,161.6762 152.6562,158.6994" fill="#000"/>
  <polygon points="162.9688,158.6994 162.9688,152.7456 157.8125,155.7225" fill="#000"/>
  <polygon points="147.5000,149.7688 152.6562,146.7919 152.6562,152.7456" fill="#000"/>
  <polygon points="178.4375,149.7688 178.4375,137.8612 168.1250,143.8150" fill="#000"/>
  <polygon points="183.5938,146.7919 183.5938,140.8381 178.4375,143.8150" fill="#000"/>
  <polygon points="173.2812,152.7456 168.1250,149.7688 173.2812,146.7919" fill="#000"/>
  <polygon points="173.2812,134.8844 168.1250,137.8612 173.2812,140.8381" fill="#000"/>
  <polygon points="147.5000,131.9075 157.8125,125.9537 157.8125,137.8612" fill="#000"/>
  <polygon points="147.5000,125.9537 152.6562,122.9769 152.6562,128.9306" fill="#000"/>
  <polygon points="147.5000,137.8612 152.6562,140.8381 152.6562,134.8844" fill="#000"/>
  <polygon points="162.9688,128.9306 162.9688,134.8844 157.8125,131.9075" fill="#000"/>
  <polygon points="106.2500,48.5550 65.0000,72.3700 106.2500,96.1850" fill="#000"/>
  <polygon points="85.6250,36.6475 65.0000,48.5550 85.6250,60.4625" fill="#000"/>
  <polygon points="75.3125,30.6938 65.0000,36.6475 75.3125,42.6013" fill="#000"/>
  <polygon points="70.1562,27.7169 65.0000,30.6938 70.1562,33.6706" fill="#000"/>
  <polygon points="80.4688,33.6706 80.4688,39.6244 75.3125,36.6475" fill="#000"/>
  <polygon points="65.0000,42.6013 70.1562,45.5781 70.1562,39.6244" fill="#000"/>
  <polygon points="95.9375,42.6013 95.9375,54.5088 85.6250,48.5550" fill="#000"/>
  <polygon points="101.0938,45.5781 101.0938,51.5319 95.9375,48.5550" fill="#000"/>
  <polygon points="90.7812,39.6244 85.6250,42.6013 90.7812,45.5781" fill="#000"/>
  <polygon points="90.7812,57.4856 85.6250,54.5088 90.7812,51.5319" fill="#000"/>
  <polygon points="65.0000,60.4625 75.3125,66.4163 75.3125,54.5088" fill="#000"/>
  <polygon points="65.0000,66.4163 70.1562,69.3931 70.1562,63.4394" fill="#000"/>
  <polygon points="65.0000,54.5088 70.1562,51.5319 70.1562,57.4856" fill="#000"/>
  <polygon points="80.4688,63.4394 80.4688,57.4856 75.3125,60.4625" fill="#000"/>
  <polygon points="126.8750,60.4625 126.8750,84.2775 106.2500,72.3700" fill="#000"/>
  <polygon points="137.1875,66.4163 137.1875,78.3238 126.8750,72.3700" fill="#000"/>
  <polygon points="142.3438,69.3931 142.3438,75.3469 137.1875,72.3700" fill="#000"/>
  <polygon points="132.0312,63.4394 126.8750,66.4163 132.0312,69.3931" fill="#000"/>
  <polygon points="132.0312,81.3006 126.8750,78.3238 132.0312,75.3469" fill="#000"/>
  <polygon points="116.5625,54.5088 106.2500,60.4625 116.5625,66.4163" fill="#000"/>
  <polygon points="111.4062,51.5319 106.2500,54.5088 111.4062,57.4856" fill="#000"/>
  <polygon points="121.7188,57.4856 121.7188,63.4394 116.5625,60.4625" fill="#000"/>
  <polygon points="106.2500,66.4163 111.4062,69.3931 111.4062,63.4394" fill="#000"/>
  <polygon points="116.5625,90.2313 106.2500,84.2775 116.5625,78.3238" fill="#000"/>
  <polygon points="111.4062,93.2081 106.2500,90.2313 111.4062,87.2544" fill="#000"/>
  <polygon points="121.7188,87.2544 121.7188,81.3006 116.5625,84.2775" fill="#000"/>
  <polygon points="106.2500,78.3238 111.4062,75.3469 111.4062,81.3006" fill="#000"/>
  <polygon points="65.0000,96.1850 85.6250,108.0925 85.6250,84.2775" fill="#000"/>
  <polygon points="65.0000,108.0925 75.3125,114.0463 75.3125,102.1388" fill="#000"/>
  <polygon points="65.0000,114.0463 70.1562,117.0231 70.1562,111.0694" fill="#000"/>
  <polygon points="65.0000,102.1388 70.1562,99.1619 70.1562,105.1156" fill="#000"/>
  <polygon points="80.4688,111.0694 80.4688,105.1156 75.3125,108.0925" fill="#000"/>
  <polygon points="65.0000,84.2775 75.3125,78.3238 75.3125,90.2313" fill="#000"/>
  <polygon points="65.0000,78.3238 70.1562,75.3469 70.1562,81.3006" fill="#000"/>
  <polygon points="65.0000,90.2313 70.1562,93.2081 70.1562,87.2544" fill="#000"/>
  <polygon points="80.4688,81.3006 80.4688,87.2544 75.3125,84.2775" fill="#000"/>
  <polygon points="95.9375,102.1388 95.9375,90.2313 85.6250,96.1850" fill="#000"/>
  <polygon points="101.0938,99.1619 101.0938,93.2081 95.9375,96.1850" fill="#000"/>
  <polygon points="90.7812,105.1156 85.6250,102.1388 90.7812,99.1619" fill="#000"/>
  <polygon points="90.7812,87.2544 85.6250,90.2313 90.7812,93.2081" fill="#000"/>
  <polygon points="106.2500,191.4450 65.0000,167.6300 106.2500,143.8150" fill="#000"/>
  <polygon points="85.6250,203.3525 65.0000,191.4450 85.6250,179.5375" fill="#000"/>
  <polygon points="75.3125,209.3062 65.0000,203.3525 75.3125,197.3988" fill="#000"/>
  <polygon points="70.1562,212.2831 65.0000,209.3062 70.1562,206.3294" fill="#000"/>
  <polygon points="80.4688,206.3294 80.4688,200.3756 75.3125,203.3525" fill="#000"/>
  <polygon points="65.0000,197.3988 70.1562,194.4219 70.1562,200.3756" fill="#000"/>
  <polygon points="95.9375,197.3988 95.9375,185.4912 85.6250,191.4450" fill="#000"/>
  <polygon points="101.0938,194.4219 101.0938,188.4681 95.9375,191.4450" fill="#000"/>
  <polygon points="90.7812,200.3756 85.6250,197.3988 90.7812,194.4219" fill="#000"/>
  <polygon points="90.7812,182.5144 85.6250,185.4912 90.7812,188.4681" fill="#000"/>
  <polygon points="65.0000,179.5375 75.3125,173.5838 75.3125,185.4912" fill="#000"/>
  <polygon points="65.0000,173.5838 70.1562,170.6069 70.1562,176.5606" fill="#000"/>
  <polygon points="65.0000,185.4912 70.1562,188.4681 70.1562,182.5144" fill="#000"/>
  <polygon points="80.4688,176.5606 80.4688,182.5144 75.3125,179.5375" fill="#000"/>
  <polygon points="126.8750,179.5375 126.8750,155.7225 106.2500,167.6300" fill="#000"/>
  <polygon points="137.1875,173.5838 137.1875,161.6762 126.8750,167.6300" fill="#000"/>
  <polygon points="142.3438,170.6069 142.3438,164.6531 137.1875,167.6300" fill="#000"/>
  <polygon points="132.0312,176.5606 126.8750,173.5838 132.0312,170.6069" fill="#000"/>
  <polygon points="132.0312,158.6994 126.8750,161.6762 132.0312,164.6531" fill="#000"/>
  <polygon points="116.5625,185.4912 106.2500,179.5375 116.5625,173.5838" fill="#000"/>
  <polygon points="111.4062,188.4681 106.2500,185.4912 111.4062,182.5144" fill="#000"/>
  <polygon points="121.7188,182.5144 121.7188,176.5606 116.5625,179.5375" fill="#000"/>
  <polygon points="106.2500,173.5838 111.4062,170.6069 111.4062,176.5606" fill="#000"/>
  <polygon points="116.5625,149.7688 106.2500,155.7225 116.5625,161.6762" fill="#000"/>
  <polygon points="111.4062,146.7919 106.2500,149.7688 111.4062,152.7456" fill="#000"/>
  <polygon points="121.7188,152.7456 121.7188,158.6994 116.5625,155.7225" fill="#000"/>
  <polygon points="106.2500,161.6762 111.4062,164.6531 111.4062,158.6994" fill="#000"/>
  <polygon points="65.0000,143.8150 85.6250,131.9075 85.6250,155.7225" fill="#000"/>
  <polygon points="65.0000,131.9075 75.3125,125.9537 75.3125,137.8612" fill="#000"/>
  <polygon points="65.0000,125.9537 70.1562,122.9769 70.1562,128.9306" fill="#000"/>
  <polygon points="65.0000,137.8612 70.1562,140.8381 70.1562,134.8844" fill="#000"/>
  <polygon points="80.4688,128.9306 80.4688,134.8844 75.3125,131.9075" fill="#000"/>
  <polygon points="65.0000,155.7225 75.3125,161.6762 75.3125,149.7688" fill="#000"/>
  <polygon points="65.0000,161.6762 70.1562,164.6531 70.1562,158.6994" fill="#000"/>
  <polygon points="65.0000,149.7688 70.1562,146.7919 70.1562,152.7456" fill="#000"/>
  <polygon points="80.4688,158.6994 80.4688,152.7456 75.3125,155.7225" fill="#000"/>
  <polygon points="95.9375,137.8612 95.9375,149.7688 85.6250,143.8150" fill="#000"/>
  <polygon points="101.0938,140.8381 101.0938,146.7919 95.9375,143.8150" fill="#000"/>
  <polygon points="90.7812,134.8844 85.6250,137.8612 90.7812,140.8381" fill="#000"/>
  <polygon points="90.7812,152.7456 85.6250,149.7688 90.7812,146.7919" fill="#000"/>
  </g>
  <polygon points="10.0000,120.0000 175.0000,24.7400 175.0000,215.2600" fill="#fff"/>
  <polygon points="92.5000,72.3700 92.5000,167.6300 175.0000,120.0000" fill="#000"/>
  <polygon points="51.2500,96.1850 51.2500,143.8150 92.5000,120.0000" fill="#000"/>
  <polygon points="30.6250,108.0925 30.6250,131.9075 51.2500,120.0000" fill="#000"/>
  <polygon points="20.3125,114.0463 20.3125,125.9537 30.6250,120.0000" fill="#000"/>
  <polygon points="15.1562,117.0231 15.1562,122.9769 20.3125,120.0000" fill="#000"/>
  <polygon points="25.4688,111.0694 30.6250,114.0463 25.4688,117.0231" fill="#000"/>
  <polygon points="25.4688,128.9306 30.6250,125.9537 25.4688,122.9769" fill="#000"/>
  <polygon points="40.9375,102.1388 51.2500,108.0925 40.9375,114.0463" fill="#000"/>
  <polygon points="46.0938,99.1619 51.2500,102.1388 46.0938,105.1156" fill="#000"/>
  <polygon points="35.7812,105.1156 35.7812,111.0694 40.9375,108.0925" fill="#000"/>
  <polygon points="51.2500,114.0463 46.0938,117.0231 46.0938,111.0694" fill="#000"/>
  <polygon points="40.9375,137.8612 51.2500,131.9075 40.9375,125.9537" fill="#000"/>
  <polygon points="46.0938,140.8381 51.2500,137.8612 46.0938,134.8844" fill="#000"/>
  <polygon points="35.7812,134.8844 35.7812,128.9306 40.9375,131.9075" fill="#000"/>
  <polygon points="51.2500,125.9537 46.0938,122.9769 46.0938,128.9306" fill="#000"/>
  <polygon points="71.8750,84.2775 92.5000,96.1850 71.8750,108.0925" fill="#000"/>
  <polygon points="82.1875,78.3238 92.5000,84.2775 82.1875,90.2313" fill="#000"/>
  <polygon points="87.3438,75.3469 92.5000,78.3238 87.3438,81.3006" fill="#000"/>
  <polygon points="77.0312,81.3006 77.0312,87.2544 82.1875,84.2775" fill="#000"/>
  <polygon points="92.5000,90.2313 87.3438,93.2081 87.3438,87.2544" fill="#000"/>
  <polygon points="61.5625,90.2313 61.5625,102.1388 71.8750,96.1850" fill="#000"/>
  <polygon points="56.4062,93.2081 56.4062,99.1619 61.5625,96.1850" fill="#000"/>
  <polygon points="66.7188,87.2544 71.8750,90.2313 66.7188,93.2081" fill="#000"/>
  <polygon points="66.7188,105.1156 71.8750,102.1388 66.7188,99.1619" fill="#000"/>
  <polygon points="92.5000,108.0925 82.1875,114.0463 82.1875,102.1388" fill="#000"/>
  <polygon points="92.5000,114.0463 87.3438,117.0231 87.3438,111.0694" fill="#000"/>
  <polygon points="92.5000,102.1388 87.3438,99.1619 87.3438,105.1156" fill="#000"/>
  <polygon points="77.0312,111.0694 77.0312,105.1156 82.1875,108.0925" fill="#000"/>
  <polygon points="71.8750,155.7225 92.5000,143.8150 71.8750,131.9075" fill="#000"/>
  <polygon points="82.1875,161.6762 92.5000,155.7225 82.1875,149.7688" fill="#000"/>
  <polygon points="87.3438,164.6531 92.5000,161.6762 87.3438,158.6994" fill="#000"/>
  <polygon points="77.0312,158.6994 77.0312,152.7456 82.1875,155.7225" fill="#000"/>
  <polygon points="92.5000,149.7688 87.3438,146.7919 87.3438,152.7456" fill="#000"/>
  <polygon points="61.5625,149.7688 61.5625,137.8612 71.8750,143.8150" fill="#000"/>
  <polygon points="56.4062,146.7919 56.4062,140.8381 61.5625,143.8150" fill="#000"/>
  <polygon points="66.7188,152.7456 71.8750,149.7688 66.7188,146.7919" fill="#000"/>
  <polygon points="66.7188,134.8844 71.8750,137.8612 66.7188,140.8381" fill="#000"/>
  <polygon points="92.5000,131.9075 82.1875,125.9537 82.1875,137.8612" fill="#000"/>
  <polygon points="92.5000,125.9537 87.3438,122.9769 87.3438,128.9306" fill="#000"/>
  <polygon points="92.5000,137.8612 87.3438,140.8381 87.3438,134.8844" fill="#000"/>
  <polygon points="77.0312,128.9306 77.0312,134.8844 82.1875,131.9075" fill="#000"/>
  <polygon points="133.7500,48.5550 175.0000,72.3700 133.7500,96.1850" fill="#000"/>
  <polygon points="154.3750,36.6475 175.0000,48.5550 154.3750,60.4625" fill="#000"/>
  <polygon points="164.6875,30.6938 175.0000,36.6475 164.6875,42.6013" fill="#000"/>
  <polygon points="169.8438,27.7169 175.0000,30.6938 169.8438,33.6706" fill="#000"/>
  <polygon points="159.5312,33.6706 159.5312,39.6244 164.6875,36.6475" fill="#000"/>
  <polygon points="175.0000,42.6013 169.8438,45.5781 169.8438,39.6244" fill="#000"/>
  <polygon points="144.0625,42.6013 144.0625,54.5088 154.3750,48.5550" fill="#000"/>
  <polygon points="138.9062,45.5781 138.9062,51.5319 144.0625,48.5550" fill="#000"/>
  <polygon points="149.2188,39.6244 154.3750,42.6013 149.2188,45.5781" fill="#000"/>
  <polygon points="149.2188,57.4856 154.3750,54.5088 149.2188,51.5319" fill="#000"/>
  <polygon points="175.0000,60.4625 164.6875,66.4163 164.6875,54.5088" fill="#000"/>
  <polygon points="175.0000,66.4163 169.8438,69.3931 169.8438,63.4394" fill="#000"/>
  <polygon points="175.0000,54.5088 169.8438,51.5319 169.8438,57.4856" fill="#000"/>
  <polygon points="159.5312,63.4394 159.5312,57.4856 164.6875,60.4625" fill="#000"/>
  <polygon points="113.1250,60.4625 113.1250,84.2775 133.7500,72.3700" fill="#000"/>
  <polygon points="102.8125,66.4163 102.8125,78.3238 113.1250,72.3700" fill="#000"/>
  <polygon points="97.6562,69.3931 97.6562,75.3469 102.8125,72.3700" fill="#000"/>
  <polygon points="107.9688,63.4394 113.1250,66.4163 107.9688,69.3931" fill="#000"/>
  <polygon points="107.9688,81.3006 113.1250,78.3238 107.9688,75.3469" fill="#000"/>
  <polygon points="123.4375,54.5088 133.7500,60.4625 123.4375,66.4163" fill="#000"/>
  <polygon points="128.5938,51.5319 133.7500,54.5088 128.5938,57.4856" fill="#000"/>
  <polygon points="118.2812,57.4856 118.2812,63.4394 123.4375,60.4625" fill="#000"/>
  <polygon points="133.7500,66.4163 128.5938,69.3931 128.5938,63.4394" fill="#000"/>
  <polygon points="123.4375,90.2313 133.7500,84.2775 123.4375,78.3238" fill="#000"/>
  <polygon points="128.5938,93.2081 133.7500,90.2313 128.5938,87.2544" fill="#000"/>
  <polygon points="118.2812,87.2544 118.2812,81.3006 123.4375,84.2775" fill="#000"/>
  <polygon points="133.7500,78.3238 128.5938,75.3469 128.5938,81.3006" fill="#000"/>
  <polygon points="175.0000,96.1850 154.3750,108.0925 154.3750,84.2775" fill="#000"/>
  <polygon points="175.0000,108.0925 164.6875,114.0463 164.6875,102.1388" fill="#000"/>
  <polygon points="175.0000,114.0463 169.8438,117.0231 169.8438,111.0694" fill="#000"/>
  <polygon points="175.0000,102.1388 169.8438,99.1619 169.8438,105.1156" fill="#000"/>
  <polygon points="159.5312,111.0694 159.5312,105.1156 164.6875,108.0925" fill="#000"/>
  <polygon points="175.0000,84.2775 164.6875,78.3238 164.6875,90.2313" fill="#000"/>
  <polygon points="175.0000,78.3238 169.8438,75.3469 169.8438,81.3006" fill="#000"/>
  <polygon points="175.0000,90.2313 169.8438,93.2081 169.8438,87.2544" fill="#000"/>
  <polygon points="159.5312,81.3006 159.5312,87.2544 164.6875,84.2775" fill="#000"/>
  <polygon points="144.0625,102.1388 144.0625,90.2313 154.3750,96.1850" fill="#000"/>
  <polygon points="138.9062,99.1619 138.9062,93.2081 144.0625,96.1850" fill="#000"/>
  <polygon points="149.2188,105.1156 154.3750,102.1388 149.2188,99.1619" fill="#000"/>
  <polygon points="149.2188,87.2544 154.3750,90.2313 149.2188,93.2081" fill="#000"/>
  <polygon points="133.7500,191.4450 175.0000,167.6300 133.7500,143.8150" fill="#000"/>
  <polygon points="154.3750,203.3525 175.0000,191.4450 154.3750,179.5375" fill="#000"/>
  <polygon points="164.6875,209.3062 175.0000,203.3525 164.6875,197.3988" fill="#000"/>
  <polygon points="169.8438,212.2831 175.0000,209.3062 169.8438,206.3294" fill="#000"/>
  <polygon points="159.5312,206.3294 159.5312,200.3756 164.6875,203.3525" fill="#000"/>
  <polygon points="175.0000,197.3988 169.8438,194.4219 169.8438,200.3756" fill="#000"/>
  <polygon points="144.0625,197.3988 144.0625,185.4912 154.3750,191.4450" fill="#000"/>
  <polygon points="138.9062,194.4219 138.9062,188.4681 144.0625,191.4450" fill="#000"/>
  <polygon points="149.2188,200.3756 154.3750,197.3988 149.2188,194.4219" fill="#000"/>
  <polygon points="149.2188,182.5144 154.3750,185.4912 149.2188,188.4681" fill="#000"/>
  <polygon points="175.0000,179.5375 164.6875,173.5838 164.6875,185.4912" fill="#000"/>
  <polygon points="175.0000,173.5838 169.8438,170.6069 169.8438,176.5606" fill="#000"/>
  <polygon points="175.0000,185.4912 169.8438,188.4681 169.8438,182.5144" fill="#000"/>
  <polygon points="159.5312,176.5606 159.5312,182.5144 164.6875,179.5375" fill="#000"/>
  <polygon points="113.1250,179.5375 113.1250,155.7225 133.7500,167.6300" fill="#000"/>
  <polygon points="102.8125,173.5838 102.8125,161.6762 113.1250,167.6300" fill="#000"/>
  <polygon points="97.6562,170.6069 97.6562,164.6531 102.8125,167.6300" fill="#000"/>
  <polygon points="107.9688,176.5606 113.1250,173.5838 107.9688,170.6069" fill="#000"/>
  <polygon points="107.9688,158.6994 113.1250,161.6762 107.9688,164.6531" fill="#000"/>
  <polygon points="123.4375,185.4912 133.7500,179.5375 123.4375,173.5838" fill="#000"/>
  <polygon points="128.5938,188.4681 133.7500,185.4912 128.5938,182.5144" fill="#000"/>
  <polygon points="118.2812,182.5144 118.2812,176.5606 123.4375,179.5375" fill="#000"/>
  <polygon points="133.7500,173.5838 128.5938,170.6069 128.5938,176.5606" fill="#000"/>
  <polygon points="123.4375,149.7688 133.7500,155.7225 123.4375,161.6762" fill="#000"/>
  <polygon points="128.5938,146.7919 133.7500,149.7688 128.5938,152.7456" fill="#000"/>
  <polygon points="118.2812,152.7456 118.2812,158.6994 123.4375,155.7225" fill="#000"/>
  <polygon points="133.7500,161.6762 128.5938,164.6531 128.5938,158.6994" fill="#000"/>
  <polygon points="175.0000,143.8150 154.3750,131.9075 154.3750,155.7225" fill="#000"/>
  <polygon points="175.0000,131.9075 164.6875,125.9537 164.6875,137.8612" fill="#000"/>
  <polygon points="175.0000,125.9537 169.8438,122.9769 169.8438,128.9306" fill="#000"/>
  <polygon points="175.0000,137.8612 169.8438,140.8381 169.8438,134.8844" fill="#000"/>
  <polygon points="159.5312,128.9306 159.5312,134.8844 164.6875,131.9075" fill="#000"/>
  <polygon points="175.0000,155.7225 164.6875,161.6762 164.6875,149.7688" fill="#000"/>
  <polygon points="175.0000,161.6762 169.8438,164.6531 169.8438,158.6994" fill="#000"/>
  <polygon points="175.0000,149.7688 169.8438,146.7919 169.8438,152.7456" fill="#000"/>
  <polygon points="159.5312,158.6994 159.5312,152.7456 164.6875,155.7225" fill="#000"/>
  <polygon points="144.0625,137.8612 144.0625,149.7688 154.3750,143.8150" fill="#000"/>
  <polygon points="138.9062,140.8381 138.9062,146.7919 144.0625,143.8150" fill="#000"/>
  <polygon points="149.2188,134.8844 154.3750,137.8612 149.2188,140.8381" fill="#000"/>
  <polygon points="149.2188,152.7456 154.3750,149.7688 149.2188,146.7919" fill="#000"/>
</svg>
