<svg xmlns="http://www.w3.org/2000/svg" viewBox="-12 -12 264 264" width="264" height="264" style="background:#ccc">
  <rect x="-10" y="-10" width="260" height="260" rx="8" ry="8" fill="#fff"/>
  <rect x="1" y="1" width="238" height="238" rx="6" ry="6" fill="#fff" stroke="#000" stroke-width="2"/>
  <circle cx="120" cy="120" r="114" fill="#fff" stroke="#000" stroke-width="2"/>
  <polygon points="10.0000,120.0000 175.0000,24.7400 175.0000,215.2600" fill="#000"/>
  <polygon points="92.5000,72.3700 92.5000,167.6300 175.0000,120.0000" fill="#fff"/>
  <polygon points="51.2500,96.1850 51.2500,143.8150 92.5000,120.0000" fill="#fff"/>
  <polygon points="30.6250,108.0925 30.6250,131.9075 51.2500,120.0000" fill="#fff"/>
  <polygon points="20.3125,114.0463 20.3125,125.9537 30.6250,120.0000" fill="#fff"/>
  <polygon points="15.1562,117.0231 15.1562,122.9769 20.3125,120.0000" fill="#fff"/>
  <polygon points="25.4688,111.0694 30.6250,114.0463 25.4688,117.0231" fill="#fff"/>
  <polygon points="25.4688,128.9306 30.6250,125.9537 25.4688,122.9769" fill="#fff"/>
  <polygon points="40.9375,102.1388 51.2500,108.0925 40.9375,114.0463" fill="#fff"/>
  <polygon points="46.0938,99.1619 51.2500,102.1388 46.0938,105.1156" fill="#fff"/>
  <polygon points="35.7812,105.1156 35.7812,111.0694 40.9375,108.0925" fill="#fff"/>
  <polygon points="51.2500,114.0463 46.0938,117.0231 46.0938,111.0694" fill="#fff"/>
  <polygon points="40.9375,137.8612 51.2500,131.9075 40.9375,125.9537" fill="#fff"/>
  <polygon points="46.0938,140.8381 51.2500,137.8612 46.0938,134.8844" fill="#fff"/>
  <polygon points="35.7812,134.8844 35.7812,128.9306 40.9375,131.9075" fill="#fff"/>
  <polygon points="51.2500,125.9537 46.0938,122.9769 46.0938,128.9306" fill="#fff"/>
  <polygon points="71.8750,84.2775 92.5000,96.1850 71.8750,108.0925" fill="#fff"/>
  <polygon points="82.1875,78.3238 92.5000,84.2775 82.1875,90.2313" fill="#fff"/>
  <polygon points="87.3438,75.3469 92.5000,78.3238 87.3438,81.3006" fill="#fff"/>
  <polygon points="77.0312,81.3006 77.0312,87.2544 82.1875,84.2775" fill="#fff"/>
  <polygon points="92.5000,90.2313 87.3438,93.2081 87.3438,87.2544" fill="#fff"/>
  <polygon points="61.5625,90.2313 61.5625,102.1388 71.8750,96.1850" fill="#fff"/>
  <polygon points="56.4062,93.2081 56.4062,99.1619 61.5625,96.1850" fill="#fff"/>
  <polygon points="66.7188,87.2544 71.8750,90.2313 66.7188,93.2081" fill="#fff"/>
  <polygon points="66.7188,105.1156 71.8750,102.1388 66.7188,99.1619" fill="#fff"/>
  <polygon points="92.5000,108.0925 82.1875,114.0463 82.1875,102.1388" fill="#fff"/>
  <polygon points="92.5000,114.0463 87.3438,117.0231 87.3438,111.0694" fill="#fff"/>
  <polygon points="92.5000,102.1388 87.3438,99.1619 87.3438,105.1156" fill="#fff"/>
  <polygon points="77.0312,111.0694 77.0312,105.1156 82.1875,108.0925" fill="#fff"/>
  <polygon points="71.8750,155.7225 92.5000,143.8150 71.8750,131.9075" fill="#fff"/>
  <polygon points="82.1875,161.6762 92.5000,155.7225 82.1875,149.7688" fill="#fff"/>
  <polygon points="87.3438,164.6531 92.5000,161.6762 87.3438,158.6994" fill="#fff"/>
  <polygon points="77.0312,158.6994 77.0312,152.7456 82.1875,155.7225" fill="#fff"/>
  <polygon points="92.5000,149.7688 87.3438,146.7919 87.3438,152.7456" fill="#fff"/>
  <polygon points="61.5625,149.7688 61.5625,137.8612 71.8750,143.8150" fill="#fff"/>
  <polygon points="56.4062,146.7919 56.4062,140.8381 61.5625,143.8150" fill="#fff"/>
  <polygon points="66.7188,152.7456 71.8750,149.7688 66.7188,146.7919" fill="#fff"/>
  <polygon points="66.7188,134.8844 71.8750,137.8612 66.7188,140.8381" fill="#fff"/>
  <polygon points="92.5000,131.9075 82.1875,125.9537 82.1875,137.8612" fill="#fff"/>
  <polygon points="92.5000,125.9537 87.3438,122.9769 87.3438,128.9306" fill="#fff"/>
  <polygon points="92.5000,137.8612 87.3438,140.8381 87.3438,134.8844" fill="#fff"/>
  <polygon points="77.0312,128.9306 77.0312,134.8844 82.1875,131.9075" fill="#fff"/>
  <polygon points="133.7500,48.5550 175.0000,72.3700 133.7500,96.1850" fill="#fff"/>
  <polygon points="154.3750,36.6475 175.0000,48.5550 154.3750,60.4625" fill="#fff"/>
  <polygon points="164.6875,30.6938 175.0000,36.6475 164.6875,42.6013" fill="#fff"/>
  <polygon points="169.8438,27.7169 175.0000,30.6938 169.8438,33.6706" fill="#fff"/>
  <polygon points="159.5312,33.6706 159.5312,39.6244 164.6875,36.6475" fill="#fff"/>
  <polygon points="175.0000,42.6013 169.8438,45.5781 169.8438,39.6244" fill="#fff"/>
  <polygon points="144.0625,42.6013 144.0625,54.5088 154.3750,48.5550" fill="#fff"/>
  <polygon points="138.9062,45.5781 138.9062,51.5319 144.0625,48.5550" fill="#fff"/>
  <polygon points="149.2188,39.6244 154.3750,42.6013 149.2188,45.5781" fill="#fff"/>
  <polygon points="149.2188,57.4856 154.3750,54.5088 149.2188,51.5319" fill="#fff"/>
  <polygon points="175.0000,60.4625 164.6875,66.4163 164.6875,54.5088" fill="#fff"/>
  <polygon points="175.0000,66.4163 169.8438,69.3931 169.8438,63.4394" fill="#fff"/>
  <polygon points="175.0000,54.5088 169.8438,51.5319 169.8438,57.4856" fill="#fff"/>
  <polygon points="159.5312,63.4394 159.5312,57.4856 164.6875,60.4625" fill="#fff"/>
  <polygon points="113.1250,60.4625 113.1250,84.2775 133.7500,72.3700" fill="#fff"/>
  <polygon points="102.8125,66.4163 102.8125,78.3238 113.1250,72.3700" fill="#fff"/>
  <polygon points="97.6562,69.3931 97.6562,75.3469 102.8125,72.3700" fill="#fff"/>
  <polygon points="107.9688,63.4394 113.1250,66.4163 107.9688,69.3931" fill="#fff"/>
  <polygon points="107.9688,81.3006 113.1250,78.3238 107.9688,75.3469" fill="#fff"/>
  <polygon points="123.4375,54.5088 133.7500,60.4625 123.4375,66.4163" fill="#fff"/>
  <polygon points="128.5938,51.5319 133.7500,54.5088 128.5938,57.4856" fill="#fff"/>
  <polygon points="118.2812,57.4856 118.2812,63.4394 123.4375,60.4625" fill="#fff"/>
  <polygon points="133.7500,66.4163 128.5938,69.3931 128.5938,63.4394" fill="#fff"/>
  <polygon points="123.4375,90.2313 133.7500,84.2775 123.4375,78.3238" fill="#fff"/>
  <polygon points="128.5938,93.2081 133.7500,90.2313 128.5938,87.2544" fill="#fff"/>
  <polygon points="118.2812,87.2544 118.2812,81.3006 123.4375,84.2775" fill="#fff"/>
  <polygon points="133.7500,78.3238 128.5938,75.3469 128.5938,81.3006" fill="#fff"/>
  <polygon points="175.0000,96.1850 154.3750,108.0925 154.3750,84.2775" fill="#fff"/>
  <polygon points="175.0000,108.0925 164.6875,114.0463 164.6875,102.1388" fill="#fff"/>
  <polygon points="175.0000,114.0463 169.8438,117.0231 169.8438,111.0694" fill="#fff"/>
  <polygon points="175.0000,102.1388 169.8438,99.1619 169.8438,105.1156" fill="#fff"/>
  <polygon points="159.5312,111.0694 159.5312,105.1156 164.6875,108.0925" fill="#fff"/>
  <polygon points="175.0000,84.2775 164.6875,78.3238 164.6875,90.2313" fill="#fff"/>
  <polygon points="175.0000,78.3238 169.8438,75.3469 169.8438,81.3006" fill="#fff"/>
  <polygon points="175.0000,90.2313 169.8438,93.2081 169.8438,87.2544" fill="#fff"/>
  <polygon points="159.5312,81.3006 159.5312,87.2544 164.6875,84.2775" fill="#fff"/>
  <polygon points="144.0625,102.1388 144.0625,90.2313 154.3750,96.1850" fill="#fff"/>
  <polygon points="138.9062,99.1619 138.9062,93.2081 144.0625,96.1850" fill="#fff"/>
  <polygon points="149.2188,105.1156 154.3750,102.1388 149.2188,99.1619" fill="#fff"/>
  <polygon points="149.2188,87.2544 154.3750,90.2313 149.2188,93.2081" fill="#fff"/>
  <polygon points="133.7500,191.4450 175.0000,167.6300 133.7500,143.8150" fill="#fff"/>
  <polygon points="154.3750,203.3525 175.0000,191.4450 154.3750,179.5375" fill="#fff"/>
  <polygon points="164.6875,209.3062 175.0000,203.3525 164.6875,197.3988" fill="#fff"/>
  <polygon points="169.8438,212.2831 175.0000,209.3062 169.8438,206.3294" fill="#fff"/>
  <polygon points="159.5312,206.3294 159.5312,200.3756 164.6875,203.3525" fill="#fff"/>
  <polygon points="175.0000,197.3988 169.8438,194.4219 169.8438,200.3756" fill="#fff"/>
  <polygon points="144.0625,197.3988 144.0625,185.4912 154.3750,191.4450" fill="#fff"/>
  <polygon points="138.9062,194.4219 138.9062,188.4681 144.0625,191.4450" fill="#fff"/>
  <polygon points="149.2188,200.3756 154.3750,197.3988 149.2188,194.4219" fill="#fff"/>
  <polygon points="149.2188,182.5144 154.3750,185.4912 149.2188,188.4681" fill="#fff"/>
  <polygon points="175.0000,179.5375 164.6875,173.5838 164.6875,185.4912" fill="#fff"/>
  <polygon points="175.0000,173.5838 169.8438,170.6069 169.8438,176.5606" fill="#fff"/>
  <polygon points="175.0000,185.4912 169.8438,188.4681 169.8438,182.5144" fill="#fff"/>
  <polygon points="159.5312,176.5606 159.5312,182.5144 164.6875,179.5375" fill="#fff"/>
  <polygon points="113.1250,179.5375 113.1250,155.7225 133.7500,167.6300" fill="#fff"/>
  <polygon points="102.8125,173.5838 102.8125,161.6762 113.1250,167.6300" fill="#fff"/>
  <polygon points="97.6562,170.6069 97.6562,164.6531 102.8125,167.6300" fill="#fff"/>
  <polygon points="107.9688,176.5606 113.1250,173.5838 107.9688,170.6069" fill="#fff"/>
  <polygon points="107.9688,158.6994 113.1250,161.6762 107.9688,164.6531" fill="#fff"/>
  <polygon points="123.4375,185.4912 133.7500,179.5375 123.4375,173.5838" fill="#fff"/>
  <polygon points="128.5938,188.4681 133.7500,185.4912 128.5938,182.5144" fill="#fff"/>
  <polygon points="118.2812,182.5144 118.2812,176.5606 123.4375,179.5375" fill="#fff"/>
  <polygon points="133.7500,173.5838 128.5938,170.6069 128.5938,176.5606" fill="#fff"/>
  <polygon points="123.4375,149.7688 133.7500,155.7225 123.4375,161.6762" fill="#fff"/>
  <polygon points="128.5938,146.7919 133.7500,149.7688 128.5938,152.7456" fill="#fff"/>
  <polygon points="118.2812,152.7456 118.2812,158.6994 123.4375,155.7225" fill="#fff"/>
  <polygon points="133.7500,161.6762 128.5938,164.6531 128.5938,158.6994" fill="#fff"/>
  <polygon points="175.0000,143.8150 154.3750,131.9075 154.3750,155.7225" fill="#fff"/>
  <polygon points="175.0000,131.9075 164.6875,125.9537 164.6875,137.8612" fill="#fff"/>
  <polygon points="175.0000,125.9537 169.8438,122.9769 169.8438,128.9306" fill="#fff"/>
  <polygon points="175.0000,137.8612 169.8438,140.8381 169.8438,134.8844" fill="#fff"/>
  <polygon points="159.5312,128.9306 159.5312,134.8844 164.6875,131.9075" fill="#fff"/>
  <polygon points="175.0000,155.7225 164.6875,161.6762 164.6875,149.7688" fill="#fff"/>
  <polygon points="175.0000,161.6762 169.8438,164.6531 169.8438,158.6994" fill="#fff"/>
  <polygon points="175.0000,149.7688 169.8438,146.7919 169.8438,152.7456" fill="#fff"/>
  <polygon points="159.5312,158.6994 159.5312,152.7456 164.6875,155.7225" fill="#fff"/>
  <polygon points="144.0625,137.8612 144.0625,149.7688 154.3750,143.8150" fill="#fff"/>
  <polygon points="138.9062,140.8381 138.9062,146.7919 144.0625,143.8150" fill="#fff"/>
  <polygon points="149.2188,134.8844 154.3750,137.8612 149.2188,140.8381" fill="#fff"/>
  <polygon points="149.2188,152.7456 154.3750,149.7688 149.2188,146.7919" fill="#fff"/>
</svg>
