<svg xmlns="http://www.w3.org/2000/svg" viewBox="0 0 385 185" width="385" height="185">
  <rect width="385" height="185" fill="#d4d4d4"/>
  <g fill="#ffffff">
    <path transform="translate(40.00,120) scale(0.100000,-0.100000)" d="M493 561Q461 587 429.0 599.5Q397 612 367 612Q329 612 305.0 594.0Q281 576 281 547Q281 527 293.0 514.0Q305 501 324.5 491.5Q344 482 368.5 475.0Q393 468 417 460Q513 428 557.5 374.5Q602 321 602 235Q602 177 582.5 130.0Q563 83 525.5 49.5Q488 16 433.5 -2.5Q379 -21 310 -21Q167 -21 45 64L129 222Q173 183 216.0 164.0Q259 145 301 145Q349 145 372.5 167.0Q396 189 396 217Q396 234 390.0 246.5Q384 259 370.0 269.5Q356 280 333.5 289.0Q311 298 279 309Q241 321 204.5 335.5Q168 350 139.5 374.0Q111 398 93.5 434.5Q76 471 76 527Q76 583 94.5 628.5Q113 674 146.5 706.5Q180 739 228.5 757.0Q277 775 337 775Q393 775 454.0 759.5Q515 744 571 714Z"/>
    <path transform="translate(112.60,120) scale(0.100000,-0.100000)" d="M275 754V0H79V754Z"/>
    <path transform="translate(156.00,120) scale(0.100000,-0.100000)" d="M446 422H835Q835 362 830.0 313.0Q825 264 810 222Q789 163 753.0 117.5Q717 72 668.5 41.5Q620 11 562.0 -5.0Q504 -21 440 -21Q352 -21 279.5 8.0Q207 37 155.0 89.5Q103 142 74.0 215.5Q45 289 45 378Q45 466 73.5 539.5Q102 613 154.5 665.0Q207 717 281.0 746.0Q355 775 446 775Q564 775 653.0 724.0Q742 673 794 566L608 489Q582 551 540.5 578.0Q499 605 446 605Q402 605 366.0 588.5Q330 572 304.5 541.5Q279 511 264.5 468.0Q250 425 250 372Q250 324 262.5 283.0Q275 242 300.0 212.0Q325 182 362.0 165.5Q399 149 448 149Q477 149 504.0 155.5Q531 162 552.5 176.5Q574 191 588.0 214.0Q602 237 607 270H446Z"/>
    <path transform="translate(252.00,120) scale(0.100000,-0.100000)" d="M275 754V0H79V754Z"/>
    <path transform="translate(295.40,120) scale(0.100000,-0.100000)" d="M275 754V166H510V0H79V754Z"/>
  </g>
  <g fill="#ffffff">
    <path transform="translate(40.00,165) scale(0.013672,-0.013672)" d="M1037 1325H418V954H1019V735H418V219H1037V0H185V1544H1037Z"/>
    <path transform="translate(66.80,165) scale(0.013672,-0.013672)" d="M185 0V1649L1311 471V1544H1544V-94L418 1081V0Z"/>
    <path transform="translate(101.40,165) scale(0.013672,-0.013672)" d="M979 804H1617V753Q1617 579 1576 445Q1536 321 1441 213Q1226 -29 894 -29Q570 -29 339 205Q108 440 108 769Q108 1105 343 1339Q578 1574 915 1574Q1096 1574 1253 1500Q1403 1426 1548 1260L1382 1101Q1192 1354 919 1354Q674 1354 508 1185Q342 1019 342 769Q342 511 527 344Q700 189 902 189Q1074 189 1211 305Q1348 422 1364 585H979Z"/>
    <path transform="translate(135.95,165) scale(0.013672,-0.013672)" d="M418 1544V0H185V1544Z"/>
    <path transform="translate(155.17,165) scale(0.013672,-0.013672)" d="M185 0V1649L1311 471V1544H1544V-94L418 1081V0Z"/>
    <path transform="translate(189.77,165) scale(0.013672,-0.013672)" d="M1037 1325H418V954H1019V735H418V219H1037V0H185V1544H1037Z"/>
    <path transform="translate(216.57,165) scale(0.013672,-0.013672)" d="M1037 1325H418V954H1019V735H418V219H1037V0H185V1544H1037Z"/>
    <path transform="translate(243.37,165) scale(0.013672,-0.013672)" d="M708 658 1186 0H901L460 632H418V0H185V1544H458Q764 1544 900 1429Q1050 1301 1050 1091Q1050 927 956.0 809.0Q862 691 708 658ZM418 835H492Q823 835 823 1088Q823 1325 501 1325H418Z"/>
    <path transform="translate(271.19,165) scale(0.013672,-0.013672)" d="M418 1544V0H185V1544Z"/>
    <path transform="translate(290.41,165) scale(0.013672,-0.013672)" d="M185 0V1649L1311 471V1544H1544V-94L418 1081V0Z"/>
    <path transform="translate(325.02,165) scale(0.013672,-0.013672)" d="M979 804H1617V753Q1617 579 1576 445Q1536 321 1441 213Q1226 -29 894 -29Q570 -29 339 205Q108 440 108 769Q108 1105 343 1339Q578 1574 915 1574Q1096 1574 1253 1500Q1403 1426 1548 1260L1382 1101Q1192 1354 919 1354Q674 1354 508 1185Q342 1019 342 769Q342 511 527 344Q700 189 902 189Q1074 189 1211 305Q1348 422 1364 585H979Z"/>
  </g>
  <circle cx="130.3" cy="136" r="10" fill="#ED1C16"/>
  <circle cx="269.7" cy="8" r="10" fill="#12E3E9"/>
</svg>
